<svg xmlns="http://www.w3.org/2000/svg" xmlns:xlink="http://www.w3.org/1999/xlink" width="250" zoomAndPan="magnify" viewBox="0 0 375 374.999991" height="150" preserveAspectRatio="xMidYMid meet" version="1.0"><defs><g/><clipPath id="90103d8760"><path d="M 118.128906 99.101562 L 256.878906 99.101562 L 256.878906 237.851562 L 118.128906 237.851562 Z M 118.128906 99.101562 " clip-rule="nonzero"/></clipPath></defs><g clip-path="url(#90103d8760)"><path fill="#ffffff" d="M 253.9375 191.644531 C 252.484375 191.644531 251.308594 190.46875 251.308594 189.015625 L 251.308594 108.34375 L 206.667969 152.984375 C 205.640625 154.011719 203.972656 154.011719 202.945312 152.984375 C 201.921875 151.957031 201.921875 150.292969 202.945312 149.265625 L 252.078125 100.136719 C 252.828125 99.382812 253.960938 99.15625 254.945312 99.566406 C 255.925781 99.972656 256.566406 100.929688 256.566406 101.996094 L 256.566406 189.015625 C 256.566406 190.46875 255.390625 191.644531 253.9375 191.644531 Z M 121.074219 237.488281 C 119.621094 237.488281 118.441406 236.3125 118.441406 234.859375 L 118.441406 143.171875 C 118.441406 142.109375 119.082031 141.148438 120.066406 140.742188 C 121.050781 140.335938 122.179688 140.558594 122.933594 141.3125 L 168.777344 187.15625 C 169.804688 188.183594 169.804688 189.847656 168.777344 190.875 C 167.75 191.902344 166.082031 191.902344 165.054688 190.875 L 123.703125 149.519531 L 123.703125 234.859375 C 123.703125 236.3125 122.523438 237.488281 121.074219 237.488281 Z M 253.9375 237.488281 C 253.265625 237.488281 252.589844 237.230469 252.078125 236.71875 L 119.214844 103.851562 C 118.1875 102.828125 118.1875 101.160156 119.214844 100.136719 C 120.242188 99.109375 121.90625 99.109375 122.933594 100.136719 L 255.796875 233 C 256.824219 234.027344 256.824219 235.691406 255.796875 236.71875 C 255.28125 237.230469 254.609375 237.488281 253.9375 237.488281 " fill-opacity="1" fill-rule="nonzero"/></g><g fill="#fffbfa" fill-opacity="1"><g transform="translate(139.678092, 261.54845)"><g><path d="M 3.472656 0 C 3.65625 0 3.75 -0.09375 3.75 -0.28125 L 3.75 -5.289062 L 9.558594 0 C 9.996094 0.402344 10.3125 0.226562 10.3125 -0.253906 L 10.3125 -10.214844 C 10.3125 -10.402344 10.214844 -10.496094 10.03125 -10.496094 L 7.894531 -10.496094 C 7.707031 -10.496094 7.613281 -10.402344 7.613281 -10.214844 L 7.613281 -5.386719 L 1.734375 -10.566406 C 1.347656 -10.90625 1.050781 -10.734375 1.050781 -10.257812 L 1.050781 -0.28125 C 1.050781 -0.09375 1.148438 0 1.332031 0 Z M 3.472656 0 "/></g></g></g><g fill="#fffbfa" fill-opacity="1"><g transform="translate(162.240171, 261.54845)"><g><path d="M 7.851562 0 C 8.035156 0 8.132812 -0.09375 8.132812 -0.28125 L 8.132812 -2.097656 C 8.132812 -2.28125 8.035156 -2.378906 7.851562 -2.378906 L 3.832031 -2.378906 L 3.832031 -3.609375 L 7.304688 -3.609375 C 7.488281 -3.609375 7.585938 -3.710938 7.585938 -3.886719 L 7.585938 -5.570312 C 7.585938 -5.753906 7.488281 -5.847656 7.304688 -5.847656 L 3.832031 -5.847656 L 3.832031 -8.117188 L 7.851562 -8.117188 C 8.035156 -8.117188 8.132812 -8.214844 8.132812 -8.398438 L 8.132812 -10.214844 C 8.132812 -10.402344 8.035156 -10.496094 7.851562 -10.496094 L 1.320312 -10.496094 C 1.132812 -10.496094 1.039062 -10.402344 1.039062 -10.214844 L 1.039062 -0.28125 C 1.039062 -0.09375 1.132812 0 1.320312 0 Z M 7.851562 0 "/></g></g></g><g fill="#fffbfa" fill-opacity="1"><g transform="translate(182.370016, 261.54845)"><g><path d="M 3.3125 0 C 3.472656 0 3.566406 -0.0546875 3.636719 -0.210938 L 5.113281 -3.273438 L 6.566406 -0.210938 C 6.636719 -0.0546875 6.730469 0 6.886719 0 L 9.628906 0 C 9.855469 0 9.921875 -0.136719 9.8125 -0.335938 L 6.785156 -5.261719 L 9.800781 -10.160156 C 9.910156 -10.359375 9.839844 -10.496094 9.613281 -10.496094 L 6.886719 -10.496094 C 6.730469 -10.496094 6.636719 -10.441406 6.566406 -10.285156 L 5.113281 -7.210938 L 3.636719 -10.285156 C 3.566406 -10.441406 3.472656 -10.496094 3.3125 -10.496094 L 0.601562 -10.496094 C 0.375 -10.496094 0.308594 -10.359375 0.417969 -10.160156 L 3.429688 -5.261719 L 0.390625 -0.335938 C 0.28125 -0.136719 0.347656 0 0.574219 0 Z M 3.3125 0 "/></g></g></g><g fill="#fffbfa" fill-opacity="1"><g transform="translate(203.784296, 261.54845)"><g><path d="M 5.679688 0.28125 C 8.253906 0.28125 10.429688 -0.828125 10.429688 -3.539062 L 10.429688 -10.214844 C 10.429688 -10.402344 10.324219 -10.496094 10.148438 -10.496094 L 7.839844 -10.496094 C 7.652344 -10.496094 7.558594 -10.402344 7.558594 -10.214844 L 7.558594 -4.285156 C 7.558594 -2.84375 6.914062 -2.242188 5.679688 -2.242188 C 4.460938 -2.242188 3.804688 -2.84375 3.804688 -4.285156 L 3.804688 -10.214844 C 3.804688 -10.402344 3.710938 -10.496094 3.527344 -10.496094 L 1.214844 -10.496094 C 1.039062 -10.496094 0.9375 -10.402344 0.9375 -10.214844 L 0.9375 -3.539062 C 0.9375 -0.828125 3.175781 0.28125 5.679688 0.28125 Z M 5.679688 0.28125 "/></g></g></g><g fill="#fffbfa" fill-opacity="1"><g transform="translate(226.346379, 261.54845)"><g><path d="M 4.285156 0.28125 C 6.273438 0.28125 8.398438 -0.492188 8.398438 -2.9375 C 8.398438 -4.886719 7.039062 -5.726562 5.792969 -6.300781 C 4.550781 -6.875 3.566406 -7.183594 3.566406 -7.8125 C 3.566406 -8.28125 4.03125 -8.4375 4.675781 -8.4375 C 5.304688 -8.4375 6.101562 -8.28125 6.785156 -8.050781 C 6.957031 -7.988281 7.078125 -8.0625 7.132812 -8.226562 L 7.640625 -9.949219 C 7.695312 -10.132812 7.640625 -10.242188 7.460938 -10.296875 C 6.503906 -10.59375 5.386719 -10.777344 4.578125 -10.777344 C 2.617188 -10.777344 0.722656 -9.910156 0.722656 -7.613281 C 0.722656 -5.972656 1.777344 -5.152344 2.992188 -4.523438 C 4.222656 -3.886719 5.542969 -3.511719 5.542969 -2.816406 C 5.542969 -2.28125 5.023438 -2.085938 4.296875 -2.085938 C 3.539062 -2.085938 2.535156 -2.296875 1.640625 -2.589844 C 1.46875 -2.644531 1.347656 -2.605469 1.285156 -2.417969 L 0.683594 -0.585938 C 0.628906 -0.402344 0.695312 -0.292969 0.882812 -0.238281 C 2.152344 0.121094 3.246094 0.28125 4.285156 0.28125 Z M 4.285156 0.28125 "/></g></g></g><g fill="#fffbfa" fill-opacity="1"><g transform="translate(128.655918, 284.050705)"><g><path d="M 0.394531 0 L 1.566406 0 L 2.859375 -3.167969 L 9.410156 -3.167969 L 10.722656 0 L 11.875 0 L 6.65625 -12.59375 L 5.613281 -12.59375 Z M 3.292969 -4.175781 L 6.136719 -11.101562 L 8.996094 -4.175781 Z M 3.292969 -4.175781 "/></g></g></g><g fill="#fffbfa" fill-opacity="1"><g transform="translate(148.141909, 284.050705)"><g><path d="M 7.539062 0.234375 C 10.507812 0.234375 12.9375 -1.511719 13.710938 -4.226562 L 12.558594 -4.226562 C 11.855469 -2.140625 9.914062 -0.863281 7.558594 -0.863281 C 4.480469 -0.863281 2.265625 -3.078125 2.265625 -6.296875 C 2.265625 -9.519531 4.480469 -11.730469 7.558594 -11.730469 C 9.859375 -11.730469 11.730469 -10.507812 12.449219 -8.511719 L 13.601562 -8.511719 C 12.773438 -11.15625 10.417969 -12.828125 7.539062 -12.828125 C 3.832031 -12.828125 1.152344 -10.128906 1.152344 -6.296875 C 1.152344 -2.464844 3.832031 0.234375 7.539062 0.234375 Z M 7.539062 0.234375 "/></g></g></g><g fill="#fffbfa" fill-opacity="1"><g transform="translate(170.128285, 284.050705)"><g><path d="M 6.621094 0.214844 C 9.570312 0.214844 11.371094 -1.726562 11.371094 -4.964844 L 11.371094 -12.59375 L 10.292969 -12.59375 L 10.292969 -5.019531 C 10.292969 -2.339844 8.960938 -0.84375 6.621094 -0.84375 C 4.28125 -0.84375 2.949219 -2.339844 2.949219 -5.019531 L 2.949219 -12.59375 L 1.871094 -12.59375 L 1.871094 -4.964844 C 1.871094 -1.726562 3.671875 0.214844 6.621094 0.214844 Z M 6.621094 0.214844 "/></g></g></g><g fill="#fffbfa" fill-opacity="1"><g transform="translate(190.56766, 284.050705)"><g><path d="M 2.03125 0 L 3.128906 0 L 3.128906 -10.578125 L 7.84375 -3.507812 L 8.746094 -3.507812 L 13.457031 -10.578125 L 13.457031 0 L 14.539062 0 L 14.539062 -12.59375 L 13.53125 -12.59375 L 8.292969 -4.714844 L 3.058594 -12.59375 L 2.03125 -12.59375 Z M 2.03125 0 "/></g></g></g><g fill="#fffbfa" fill-opacity="1"><g transform="translate(214.334875, 284.050705)"><g><path d="M 2.03125 0 L 9.644531 0 L 9.644531 -1.027344 L 3.128906 -1.027344 L 3.128906 -5.917969 L 8.976562 -5.917969 L 8.976562 -6.925781 L 3.128906 -6.925781 L 3.128906 -11.570312 L 9.445312 -11.570312 L 9.445312 -12.59375 L 2.03125 -12.59375 Z M 2.03125 0 "/></g></g></g><g fill="#fffbfa" fill-opacity="1"><g transform="translate(232.489735, 284.050705)"><g><path d="M 2.03125 0 L 3.113281 0 L 3.113281 -10.722656 L 10.777344 0 L 11.804688 0 L 11.804688 -12.59375 L 10.722656 -12.59375 L 10.722656 -1.890625 L 3.058594 -12.59375 L 2.03125 -12.59375 Z M 2.03125 0 "/></g></g></g></svg>